<svg width="24" height="24" viewBox="0 0 24 24" fill="none" xmlns="http://www.w3.org/2000/svg">
<path d="M21.5333 6.86667H15V5H21.5333V6.86667ZM23.1443 16.2C22.7317 17.4105 21.2505 19 18.3833 19C15.5143 19 13.1903 17.3863 13.1903 13.7033C13.1903 10.054 15.3603 8.178 18.2919 8.178C21.1684 8.178 22.9249 9.8412 23.3085 12.3089C23.3813 12.7812 23.4103 13.4177 23.3972 14.3063H15.9053C16.0267 17.3032 19.1561 17.3975 20.1875 16.2H23.1443ZM15.9707 12.4667H20.6047C20.5067 11.0228 19.5444 10.3956 18.2928 10.3956C16.9245 10.3956 16.1676 11.1124 15.9707 12.4667ZM7.03493 18.9888H1V5.0196H7.48947C12.6004 5.0952 12.6975 10.1007 10.0281 11.4652C13.2584 12.6412 13.3667 18.9888 7.03493 18.9888ZM3.8 10.6H7.14507C9.48587 10.6 9.85733 7.8 6.85387 7.8H3.8V10.6ZM6.96493 13.4H3.8V16.2149H6.91827C9.7696 16.2149 9.59507 13.4 6.96493 13.4Z" fill="#030712"/>
</svg>
