<svg width="24" height="24" viewBox="0 0 24 24" fill="none" xmlns="http://www.w3.org/2000/svg">
<path d="M14.4355 8.24142H17.1797" stroke="#030712" stroke-width="1.5" stroke-linecap="round" stroke-linejoin="round"/>
<path d="M13.4313 13.1237H13.4323" stroke="#030712" stroke-width="1.5" stroke-linecap="round" stroke-linejoin="round"/>
<path fill-rule="evenodd" clip-rule="evenodd" d="M17.9555 12.9937H13.4316V12.7256C13.4316 11.4134 14.4954 10.3496 15.8076 10.3496V10.3496C17.1199 10.3496 18.1836 11.4134 18.1836 12.7256V12.7656C18.1831 12.8914 18.0813 12.9932 17.9555 12.9937V12.9937Z" stroke="#030712" stroke-width="1.5" stroke-linecap="round" stroke-linejoin="round"/>
<path d="M13.4316 12.9937V13.1247C13.4314 14.123 14.0317 15.0235 14.9534 15.4073C15.875 15.7911 16.937 15.5828 17.6454 14.8794" stroke="#030712" stroke-width="1.5" stroke-linecap="round" stroke-linejoin="round"/>
<path d="M6.12109 11.4999V8.49864C6.12109 8.36051 6.23307 8.24854 6.3712 8.24854H8.49808" stroke="#030712" stroke-width="1.5" stroke-linecap="round" stroke-linejoin="round"/>
<path fill-rule="evenodd" clip-rule="evenodd" d="M9.12534 11.5C10.2561 11.5 11.1731 12.4161 11.1742 13.5469V13.5469C11.1742 14.09 10.9584 14.6109 10.5744 14.9949C10.1903 15.3789 9.66947 15.5947 9.12635 15.5947H6.26115C6.18412 15.5947 6.12109 15.4827 6.12109 15.3446V11.5H9.12534Z" stroke="#030712" stroke-width="1.5" stroke-linecap="round" stroke-linejoin="round"/>
<path fill-rule="evenodd" clip-rule="evenodd" d="M17.0019 21.0041H6.99776C4.7877 21.0041 2.99609 19.2125 2.99609 17.0024V6.99825C2.99609 4.78819 4.7877 2.99658 6.99776 2.99658H17.0019C19.212 2.99658 21.0036 4.78819 21.0036 6.99825V17.0024C21.0036 19.2125 19.212 21.0041 17.0019 21.0041Z" stroke="#030712" stroke-width="1.5" stroke-linecap="round" stroke-linejoin="round"/>
<path d="M8.49805 8.24951C9.39565 8.25006 10.1232 8.97758 10.1237 9.87519V9.87519C10.1226 10.7724 9.39526 11.4993 8.49805 11.4999" stroke="#030712" stroke-width="1.5" stroke-linecap="round" stroke-linejoin="round"/>
</svg>
