<svg width="83" height="23" viewBox="0 0 83 23" fill="none" xmlns="http://www.w3.org/2000/svg">
<path d="M40.4699 0L36.5216 1.48058V21.4684H40.4699V0Z" fill="white"/>
<path d="M47.3793 0L43.4311 1.48058V21.4684H47.3793V0Z" fill="white"/>
<path fill-rule="evenodd" clip-rule="evenodd" d="M15.2995 14.5591C15.2995 18.7839 11.8746 22.2087 7.64977 22.2087C3.42492 22.2087 0 18.7839 0 14.5591C0 10.3343 3.42492 6.90939 7.64977 6.90939C8.94242 6.90939 10.1602 7.23001 11.2279 7.79605V0.370149L15.1762 1.72735L15.2995 14.5591ZM7.64975 18.2605C9.69403 18.2605 11.3513 16.6033 11.3513 14.5591C11.3513 12.5148 9.69403 10.8576 7.64975 10.8576C5.60547 10.8576 3.94825 12.5148 3.94825 14.5591C3.94825 16.6033 5.60547 18.2605 7.64975 18.2605Z" fill="white"/>
<path fill-rule="evenodd" clip-rule="evenodd" d="M75.307 22.2087C71.0583 22.2087 67.614 18.7645 67.614 14.5158L67.7381 1.61163L71.7087 0.246759V7.71462C72.7824 7.14537 74.007 6.82294 75.307 6.82294C79.5557 6.82294 83 10.2672 83 14.5158C83 18.7645 79.5557 22.2087 75.307 22.2087ZM71.9089 12.9941C72.4906 11.697 73.7933 10.7935 75.307 10.7935C77.3629 10.7935 79.0294 12.46 79.0294 14.5158C79.0294 16.0165 78.1415 17.3097 76.8623 17.8987C76.3785 18.1306 75.8365 18.2605 75.2642 18.2605C73.22 18.2605 71.5627 16.6033 71.5627 14.5591C71.5627 13.9998 71.6868 13.4695 71.9089 12.9941Z" fill="white"/>
<path d="M63.6659 15.546V6.66262H59.5942V15.5461C59.5942 16.7799 58.2805 17.8904 56.8798 17.8904C55.4791 17.8904 54.1654 16.7799 54.1654 15.5461V6.66262H50.3405V15.546C50.3405 19.2257 53.3235 22.2087 57.0032 22.2087C60.6829 22.2087 63.6659 19.2257 63.6659 15.546Z" fill="white"/>
<path fill-rule="evenodd" clip-rule="evenodd" d="M25.7872 21.7152C21.4942 21.7152 18.014 18.2351 18.014 13.9421C18.014 9.64921 21.4942 6.16909 25.7872 6.16909C30.0802 6.16909 33.5603 9.64921 33.5603 13.9421C33.5603 14.7139 33.4479 15.4593 33.2384 16.163H22.826C22.826 16.163 23.4429 17.3968 24.9235 17.6436C27.0244 17.9938 28.5016 16.6565 28.5016 16.6565L31.3394 19.371C29.9374 20.7448 27.9051 21.7152 25.7872 21.7152ZM25.2678 10.39C24.093 10.4488 23.0745 11.2222 22.7025 12.3382H28.8717C28.4997 11.2222 27.4812 10.4488 26.3063 10.39L25.7871 10.3641L25.2678 10.39Z" fill="white"/>
</svg>
